<svg xmlns="http://www.w3.org/2000/svg" viewBox="0 0 80.95 32.8"><title>ben</title><g id="Layer_2" data-name="Layer 2"><g id="Layer_1-2" data-name="Layer 1"><path d="M0,0H9.3C16,0,20.55,2.25,20.55,8a7.13,7.13,0,0,1-5.75,7.15v.2c4.8.75,7.6,3.35,7.6,7.85,0,6.45-5,9.6-12.35,9.6H0ZM8.6,13.8c5.6,0,7.85-1.8,7.85-5.45S13.85,3.5,8.8,3.5H4.15V13.8Zm.85,15.5c5.6,0,8.85-1.85,8.85-6.3,0-4.05-3.1-5.7-8.85-5.7H4.15v12Z"/><path d="M30.75,0h20.3V3.5H34.95V13.8h13.6v3.55H34.95v11.9h16.6V32.8H30.75Z"/><path d="M59.15,0h4.6l10.5,20.6,3.15,6.8h.1c-.15-3.25-.55-7-.55-10.4V0h4V32.8h-4.6L65.85,12.2,62.7,5.4h-.1c.15,3.35.55,6.85.55,10.25V32.8h-4Z"/></g></g></svg>