<svg width="1000px" height="500px"  version="1.1" xmlns="http://www.w3.org/2000/svg" xmlns:xlink="http://www.w3.org/1999/xlink">
    <g id="b" fill="none" stroke="#FFF" >
        <path d="M174,434 L174,209 L237.9,209 C274.8,209 300,228.2 300,264.5 L300,267.5 C300,289.4 289.5,303.5 273.3,311.3 C293.1,319.7 306,337.4 306,363.5 L306,369.5 C306,411.2 280.8,434 243.9,434 L174,434 Z"></path>
    </g>
    <g id="e" fill="none" stroke="#FFF">
        <polygon points="339 434 339 209 442.2 209 442.2 242 375 242 375 302 436.2 302 436.2 335 375 335 375 401 442.2 401 442.2 434"></polygon>
    </g>

    <g id="n" fill="none" stroke="#FFF">
        <polygon points="610.2 209 610.2 434 551.1 434 508.2 236.6 508.2 434 475.2 434 475.2 209 534.9 209 577.2 403.7 577.2 209"></polygon>
    </g>
</svg>