<svg xmlns="http://www.w3.org/2000/svg" xmlns:xlink="http://www.w3.org/1999/xlink" xmlns:sketch="http://www.bohemiancoding.com/sketch/ns" viewBox="0 0 100 125" version="1.1" x="0px" y="0px">
    <g stroke="none" stroke-width="1" fill="none" fill-rule="evenodd" sketch:type="MSPage">
        <path d="M27.6675,68.4575 L44.23875,53.15375 L48.97125,57.52625 C49.33125,57.85625 49.78875,58.025 50.2425,58.025 C50.7,58.025 51.1575,57.85625 51.5175,57.52625 L56.25,53.1575 L72.82125,68.4575 L27.6675,68.4575 Z M24.75,35.1575 L41.475,50.60375 L24.75,66.05 L24.75,35.1575 Z M72.82125,32.75 L50.2425,53.59625 L27.6675,32.75 L72.82125,32.75 Z M75.73875,66.05 L59.01375,50.60375 L75.73875,35.1575 L75.73875,66.05 Z M79.43625,30.60125 C79.41375,30.4625 79.4025,30.32 79.35375,30.19625 C79.30125,30.06125 79.21125,29.945 79.12875,29.825 C79.07625,29.75 79.05375,29.6675 78.99,29.6 C78.9825,29.5925 78.97125,29.58875 78.96375,29.58125 C78.85125,29.465 78.71625,29.39 78.585,29.3075 C78.51,29.2625 78.45,29.195 78.3675,29.16125 C78.27,29.11625 78.165,29.1125 78.06375,29.09 C77.92875,29.05625 77.7975,29.0075 77.65125,29.0075 C77.64,29.0075 77.62875,29 77.61375,29 L22.875,29 C22.86375,29 22.8525,29.00375 22.84125,29.00375 C22.66875,29.0075 22.515,29.05625 22.3575,29.10125 C22.27875,29.12375 22.2,29.12375 22.125,29.1575 C22.03125,29.19875 21.96,29.27 21.87375,29.32625 C21.75375,29.405 21.63,29.4725 21.525,29.58125 C21.5175,29.58875 21.50625,29.5925 21.495,29.6 C21.435,29.6675 21.40875,29.75 21.36,29.825 C21.2775,29.945 21.1875,30.06125 21.135,30.19625 C21.08625,30.32 21.075,30.4625 21.0525,30.60125 C21.0375,30.69125 21,30.7775 21,30.875 L21,70.3325 C21,70.43 21.0375,70.5125 21.0525,70.60625 C21.075,70.745 21.08625,70.88375 21.135,71.01125 C21.1875,71.1425 21.2775,71.25875 21.36,71.3825 C21.40875,71.45375 21.435,71.54 21.495,71.60375 C21.50625,71.615 21.5175,71.615 21.525,71.62625 C21.68625,71.795 21.8775,71.9225 22.08,72.01625 C22.1025,72.0275 22.1175,72.04625 22.13625,72.0575 C22.3725,72.155 22.62375,72.2075 22.875,72.2075 L77.61375,72.2075 C77.865,72.2075 78.11625,72.155 78.34875,72.0575 C78.37125,72.04625 78.38625,72.0275 78.40875,72.01625 C78.61125,71.9225 78.79875,71.795 78.96375,71.62625 C78.97125,71.615 78.9825,71.615 78.99,71.60375 C79.05375,71.54 79.07625,71.45375 79.12875,71.3825 C79.21125,71.25875 79.30125,71.1425 79.35375,71.01125 C79.4025,70.88375 79.41375,70.745 79.43625,70.60625 C79.4475,70.5125 79.48875,70.43 79.48875,70.3325 L79.48875,30.875 C79.48875,30.7775 79.4475,30.69125 79.43625,30.60125 L79.43625,30.60125 Z" fill="white" sketch:type="MSShapeGroup" />
    </g>
</svg>