<svg xmlns="http://www.w3.org/2000/svg" xmlns:xlink="http://www.w3.org/1999/xlink" version="1.1" x="0px" y="0px" viewBox="0 0 100 100" xml:space="preserve">
    <path fill="white" d="M60.63379,10.29297c-0.39062-0.39062-1.02344-0.39062-1.41406,0L16.40234,53.11035  c-0.39062,0.39062-0.39062,1.02344,0,1.41406l29.07324,29.07324c0.19531,0.19531,0.45117,0.29297,0.70703,0.29297  s0.51172-0.09766,0.70703-0.29297l42.81738-42.81738c0.39062-0.39062,0.39062-1.02344,0-1.41406L60.63379,10.29297z   M60.79358,13.28088l25.94708,25.94708l-26.31525,1.83575L60.79358,13.28088z M58.32031,48.96973  c-0.02344,1.76465-1.47656,3.21777-3.24121,3.24121L19.66052,52.6803l39.12915-39.12915L58.32031,48.96973z M46.84143,54.32043  l-1.38147,26.43347l-26.0697-26.0697L46.84143,54.32043z M48.84625,54.29388l6.26019-0.08295  c2.83691-0.03711,5.17676-2.37695,5.21387-5.21387l0.07855-5.92572l26.00293-1.81396L47.4942,80.16498L48.84625,54.29388z" />
    <path fill="white" d="M27.29004,72.70996c-0.39062-0.39062-1.02344-0.39062-1.41406,0L10.29297,88.29297  c-0.39062,0.39062-0.39062,1.02344,0,1.41406C10.48828,89.90234,10.74414,90,11,90s0.51172-0.09766,0.70703-0.29297  l15.58301-15.58301C27.68066,73.7334,27.68066,73.10059,27.29004,72.70996z" />
    <path fill="white" d="M11,75.08301c0.25586,0,0.51172-0.09766,0.70703-0.29297l7.625-7.625c0.39062-0.39062,0.39062-1.02344,0-1.41406  s-1.02344-0.39062-1.41406,0l-7.625,7.625c-0.39062,0.39062-0.39062,1.02344,0,1.41406  C10.48828,74.98535,10.74414,75.08301,11,75.08301z" />
    <path fill="white" d="M32.78027,80.61426l-7.625,7.625c-0.39062,0.39062-0.39062,1.02344,0,1.41406  c0.19531,0.19531,0.45117,0.29297,0.70703,0.29297s0.51172-0.09766,0.70703-0.29297l7.625-7.625  c0.39062-0.39062,0.39062-1.02344,0-1.41406S33.1709,80.22363,32.78027,80.61426z" />
</svg>